<?xml version="1.0" encoding="UTF-8" standalone="no"?>
<!-- Created with Inkscape (http://www.inkscape.org/) -->

<svg
   width="19.67597mm"
   height="35.69994mm"
   viewBox="0 0 19.67597 35.69994"
   version="1.1"
   id="svg5"
   xml:space="preserve"
   inkscape:version="1.2 (dc2aedaf03, 2022-05-15)"
   sodipodi:docname="logo.svg"
   xmlns:inkscape="http://www.inkscape.org/namespaces/inkscape"
   xmlns:sodipodi="http://sodipodi.sourceforge.net/DTD/sodipodi-0.dtd"
   xmlns="http://www.w3.org/2000/svg"
   xmlns:svg="http://www.w3.org/2000/svg"><sodipodi:namedview
     id="namedview7"
     pagecolor="#ffffff"
     bordercolor="#000000"
     borderopacity="0.25"
     inkscape:showpageshadow="2"
     inkscape:pageopacity="0.0"
     inkscape:pagecheckerboard="0"
     inkscape:deskcolor="#d1d1d1"
     inkscape:document-units="mm"
     showgrid="false"
     inkscape:zoom="4.051698"
     inkscape:cx="37.761945"
     inkscape:cy="61.949335"
     inkscape:window-width="1920"
     inkscape:window-height="1012"
     inkscape:window-x="-8"
     inkscape:window-y="-8"
     inkscape:window-maximized="1"
     inkscape:current-layer="layer1" /><defs
     id="defs2"><inkscape:path-effect
       effect="powerstroke"
       id="path-effect3444"
       is_visible="true"
       lpeversion="1"
       offset_points="0.17695641,0.23871812 | 1.0047814,3.4364799 | 1.9150227,-0.21882965"
       not_jump="false"
       sort_points="true"
       interpolator_type="CentripetalCatmullRom"
       interpolator_beta="0.2"
       start_linecap_type="zerowidth"
       linejoin_type="round"
       miter_limit="4"
       scale_width="1"
       end_linecap_type="zerowidth" /><inkscape:path-effect
       effect="powerstroke"
       id="path-effect3374"
       is_visible="true"
       lpeversion="1"
       offset_points="0.2,1.229 | 1,1.229 | 1.8,1.229"
       not_jump="false"
       sort_points="true"
       interpolator_type="CentripetalCatmullRom"
       interpolator_beta="0.2"
       start_linecap_type="zerowidth"
       linejoin_type="round"
       miter_limit="4"
       scale_width="1"
       end_linecap_type="zerowidth" /><inkscape:path-effect
       effect="powerstroke"
       id="path-effect2584"
       is_visible="true"
       lpeversion="1"
       offset_points="0.2,0.52899998 | 1,0.52899998 | 1.8,0.52899998"
       not_jump="false"
       sort_points="true"
       interpolator_type="CentripetalCatmullRom"
       interpolator_beta="0.2"
       start_linecap_type="zerowidth"
       linejoin_type="round"
       miter_limit="4"
       scale_width="1"
       end_linecap_type="zerowidth" /><inkscape:path-effect
       effect="powerstroke"
       id="path-effect2512"
       is_visible="true"
       lpeversion="1"
       offset_points="0.92205762,0.78362205"
       not_jump="true"
       sort_points="true"
       interpolator_type="CentripetalCatmullRom"
       interpolator_beta="0.9"
       start_linecap_type="zerowidth"
       linejoin_type="bevel"
       miter_limit="4"
       scale_width="1"
       end_linecap_type="zerowidth" /><inkscape:path-effect
       effect="simplify"
       id="path-effect2510"
       is_visible="true"
       lpeversion="1"
       steps="1"
       threshold="0.6"
       smooth_angles="0"
       helper_size="0"
       simplify_individual_paths="false"
       simplify_just_coalesce="false"
       step="1" /><inkscape:path-effect
       effect="powerstroke"
       id="path-effect1957"
       is_visible="true"
       lpeversion="1"
       offset_points="34.5,0.52899998"
       not_jump="false"
       sort_points="true"
       interpolator_type="CentripetalCatmullRom"
       interpolator_beta="0.2"
       start_linecap_type="zerowidth"
       linejoin_type="round"
       miter_limit="4"
       scale_width="1"
       end_linecap_type="zerowidth" /><inkscape:path-effect
       effect="fill_between_many"
       method="bsplinespiro"
       linkedpaths="#path1058,0,1"
       id="path-effect1959"
       is_visible="true"
       lpeversion="0"
       join="true"
       close="true"
       autoreverse="true" /><inkscape:path-effect
       effect="fill_between_many"
       method="bsplinespiro"
       linkedpaths="#path3366,0,1"
       id="path-effect3376"
       is_visible="true"
       lpeversion="0"
       join="true"
       close="true"
       autoreverse="true" /><inkscape:path-effect
       effect="powerstroke"
       id="path-effect3444-5"
       is_visible="true"
       lpeversion="1"
       offset_points="0.17695641,0.15350277 | 1.0047814,2.2097575 | 1.9150227,-0.14071389"
       not_jump="false"
       sort_points="true"
       interpolator_type="CentripetalCatmullRom"
       interpolator_beta="0.2"
       start_linecap_type="zerowidth"
       linejoin_type="round"
       miter_limit="4"
       scale_width="1"
       end_linecap_type="zerowidth" /></defs><g
     inkscape:label="Layer 1"
     inkscape:groupmode="layer"
     id="layer1"
     transform="translate(-47.978783,-116.36504)"><g
       id="g11695"><path
         id="path3442"
         style="fill:#d90368;fill-opacity:1;fill-rule:nonzero;stroke:none;stroke-width:2.53081;stroke-linecap:round;stroke-linejoin:round;stroke-dasharray:none;stroke-opacity:1;paint-order:markers stroke fill"
         d="m 51.212152,116.36547 c -0.03678,0.003 -0.129137,0.0727 -0.531862,0.41015 -0.120908,0.10129 -0.294425,0.23004 -0.506338,0.4092 -0.517047,0.43714 -1.416313,1.31097 -1.893575,2.77141 -0.415319,1.27088 -0.487644,2.95773 0.340131,4.88083 0.842642,1.95764 2.515987,3.90269 5.018862,5.59241 0.06238,0.0421 0.124463,0.0842 0.185796,0.12592 2.918177,1.9849 5.083349,3.80134 6.701115,5.62531 1.500613,1.69189 2.400909,3.25216 2.956706,4.70008 0.605708,1.57796 0.776411,2.97999 0.845283,3.87168 0.03091,0.4002 0.04407,0.72059 0.04511,0.97244 l 0.01484,0.004 c 0.223151,-0.16574 0.506168,-0.39633 0.843501,-0.7397 0.754128,-0.76764 1.777932,-2.11983 2.222427,-4.22412 0.405134,-1.91794 0.265023,-4.3374 -1.058383,-7.02938 -1.406829,-2.86168 -3.953363,-5.61498 -7.459732,-8.0147 -0.07403,-0.0507 -0.148424,-0.10097 -0.223786,-0.15167 -1.824398,-1.22552 -3.170053,-2.27287 -4.179516,-3.19682 -0.994596,-0.91034 -1.701825,-1.74103 -2.212929,-2.54295 -0.59518,-0.93384 -0.909449,-1.8059 -1.047106,-2.36221 -0.05351,-0.21624 -0.08239,-0.39472 -0.08489,-0.52462 -0.0093,-0.48913 0.07661,-0.55583 0.0374,-0.57469 -0.0038,-0.002 -0.0078,-0.003 -0.01306,-0.003 z" /><path
         id="path3442-5"
         style="fill:#d90368;fill-opacity:1;fill-rule:nonzero;stroke:none;stroke-width:1.71174;stroke-linecap:round;stroke-linejoin:round;stroke-dasharray:none;stroke-opacity:1;paint-order:markers stroke fill"
         d="m 52.781422,132.20439 c -0.02488,0.002 -0.08734,0.0492 -0.359729,0.2774 -0.08178,0.0685 -0.199138,0.15559 -0.342467,0.27677 -0.349711,0.29567 -0.957938,0.88669 -1.280739,1.87448 -0.280905,0.85957 -0.329823,2.00049 0.230051,3.3012 0.56993,1.32407 1.701714,2.63961 3.394558,3.78248 0.04219,0.0284 0.08419,0.0569 0.125665,0.0852 1.973739,1.34252 3.438175,2.57108 4.532367,3.80474 1.014955,1.14432 1.623879,2.19962 1.999798,3.17894 0.409676,1.06727 0.525134,2.01555 0.571715,2.61865 0.02091,0.27068 0.02981,0.48738 0.03051,0.65773 l 0.01,0.003 c 0.15093,-0.11211 0.342352,-0.26806 0.570511,-0.50031 0.510062,-0.5192 1.202522,-1.43377 1.50316,-2.85702 0.274017,-1.29722 0.179251,-2.93365 -0.715848,-4.7544 -0.951523,-1.93552 -2.673896,-3.79774 -5.045465,-5.42082 -0.05007,-0.0342 -0.100394,-0.0683 -0.151359,-0.10259 -1.23395,-0.82888 -2.144098,-1.53727 -2.826858,-2.16219 -0.672706,-0.61573 -1.151047,-1.17757 -1.496737,-1.71996 -0.402556,-0.63161 -0.615115,-1.22143 -0.708221,-1.5977 -0.03618,-0.14625 -0.05572,-0.26697 -0.05741,-0.35483 -0.0063,-0.33083 0.05182,-0.37594 0.02529,-0.3887 -0.0025,-9.2e-4 -0.0053,-0.002 -0.0088,-0.002 z" /></g></g></svg>
